<svg xmlns="http://www.w3.org/2000/svg" xmlns:xlink="http://www.w3.org/1999/xlink" width="334" height="273" viewBox="0 0 334 273">
  <defs>
    <clipPath id="clip-path">
      <rect id="Rectangle_62" data-name="Rectangle 62" width="334" height="273" transform="translate(23 129)" fill="#fff"/>
    </clipPath>
  </defs>
  <g id="Group_1" data-name="Group 1" transform="translate(-23 -129)" clip-path="url(#clip-path)">
    <path id="Path_3" data-name="Path 3" d="M104.328,242l7.583-3.819,24.783,55.535c.043-1.01.085-1.559.086-2.108q.006-14.545,0-29.089c0-3.747,1.44-5.282,4.966-5.282q54.359,0,108.719,0h1.85l.094-.262-7.048-3.541,12.728-28.965-20.779-10.323,8.922-20.342L370.3,255.3l-8.913,20.327-8.944-4.373c-.031.719-.076,1.239-.076,1.76,0,11.449.009,22.9-.023,34.348a2.106,2.106,0,0,0,1.246,2.239,8.684,8.684,0,0,1,4.084,9.713,8.073,8.073,0,0,1-15.823.3,8.727,8.727,0,0,1,3.783-9.858,2.239,2.239,0,0,0,1.18-2.307q-.042-18.736,0-37.471a1.986,1.986,0,0,0-1.3-2.218c-1.763-.741-3.456-1.665-5.331-2.588-4.242,9.633-8.443,19.171-12.708,28.854l-5.122-2.465v2.165q0,36.074,0,72.148c0,3.889-1.464,5.426-5.169,5.426q-21.187,0-42.374,0h-1.8v-8.906h40.925v-1.95q0-35.663.034-71.325a2.412,2.412,0,0,0-1.576-2.554c-13.27-6.513-26.513-13.091-39.787-19.595a7.627,7.627,0,0,0-3.253-.755q-61.164-.057-122.329-.033h-1.758v96.1h40.835v8.944H171.422c.185.562.278.958.439,1.319q4.952,11.125,9.944,22.23c.22.488.8,1.116,1.226,1.125,4.112.085,8.226.051,12.454.051v-11.7h66.526V395.89h22.809V405.7H172.971c0-2.871.036-5.7-.023-8.533a6.3,6.3,0,0,0-.5-2.344c-3.276-7.429-6.621-14.824-9.874-22.265a1.8,1.8,0,0,0-1.976-1.288c-6.34.047-12.681.028-19.022.022-3.269,0-4.79-1.635-4.79-5.149q-.006-24.817-.032-49.632a8.411,8.411,0,0,0-.7-3.28q-15.429-34.721-30.933-69.4c-.241-.539-.469-1.084-.79-1.827" transform="translate(-39.006 -64.852)" fill="#fff"/>
    <path id="Path_4" data-name="Path 4" d="M253.029,351.929h16.159c2.3-11.035,8.023-19.4,17.562-24.556a30.055,30.055,0,0,1,22.541-2.636c15.277,3.964,26.021,19.861,24.59,36.306-1.513,17.391-14.146,30.772-30.3,31.936-16.423,1.184-31.151-10.652-34.4-28.419H253.067c-2.048,10.42-7.266,18.547-16.009,23.918a29.42,29.42,0,0,1-21.605,4.063c-16.57-3.234-27.77-18.077-27.159-35.749.567-16.375,12.928-30.683,27.953-32.787,17.256-2.417,33.3,9.515,36.782,27.924m48.348-21.645c-14.589-.018-26.484,12.588-26.489,28.073-.006,15.424,11.824,28.065,26.3,28.11,14.6.045,26.535-12.528,26.566-27.995.031-15.509-11.818-28.171-26.381-28.189m-80.543,56.183c14.586.024,26.5-12.585,26.505-28.06.009-15.425-11.818-28.077-26.289-28.123-14.606-.047-26.535,12.508-26.581,27.975-.047,15.5,11.814,28.185,26.365,28.208" transform="translate(-70.39 -108.304)" fill="#fff"/>
    <path id="Path_5" data-name="Path 5" d="M318.793,444c-4.216,8.908-16.115,19.575-32.956,18.217-9.545-.77-23.689-10.44-25.747-18.153,19.518,9.221,38.994,9.221,58.7-.063" transform="translate(-97.241 -148.575)" fill="#fff"/>
    <path id="Path_6" data-name="Path 6" d="M69.251,560.125V534.467h6.5V543.8h8.285v-9.345h6.5v25.667H84.1v-9.96H75.823v9.967Z" transform="translate(-25.891 -178.841)" fill="#fff"/>
    <path id="Path_7" data-name="Path 7" d="M153.877,552.193v7.87h-6.489V534.273h1.944c2.782,0,5.566-.052,8.346.015a8.712,8.712,0,0,1,8.229,9.03c-.016,5.062-3.476,8.776-8.28,8.869-1.178.023-2.356,0-3.75,0M154,540.44v5.678c1.694-.5,3.724.894,4.763-1.13a4.416,4.416,0,0,0-.062-3.551c-1.1-1.9-3.057-.664-4.7-1" transform="translate(-55.105 -178.775)" fill="#fff"/>
    <path id="Path_8" data-name="Path 8" d="M181.49,534.387c3.836,0,7.6-.249,11.327.065,4.334.367,7.411,4.716,7.169,9.51a8.362,8.362,0,0,1-7.933,8.229c-1.281.054-2.566.008-4.018.008v7.867H181.49Zm6.539,11.706c1.726-.409,3.725.888,4.783-1.037a4.405,4.405,0,0,0-.074-3.67c-1.118-1.789-3.049-.657-4.709-.9Z" transform="translate(-67.855 -178.788)" fill="#fff"/>
    <path id="Path_9" data-name="Path 9" d="M129.684,560.131h-6.72a40.506,40.506,0,0,0-1.212-3.948,1.994,1.994,0,0,0-1.363-1.075c-1.429-.144-2.884.013-4.322-.074-.924-.057-1.277.385-1.49,1.234-.316,1.267-.7,2.514-1.072,3.827h-6.77l8.443-25.813c1.811,0,3.559-.04,5.3.033a1.337,1.337,0,0,1,.994.721c2.743,8.291,5.441,16.6,8.208,25.094m-13.711-9.9h4.4c-.7-2.55-1.352-4.948-2.009-7.344l-.337.048-2.059,7.3" transform="translate(-39.906 -178.781)" fill="#fff"/>
    <path id="Path_10" data-name="Path 10" d="M222.339,545.481c1.42-3.55,2.717-6.688,3.921-9.866.378-1,.835-1.443,1.907-1.379,1.838.108,3.685.031,5.795.031-.311.722-.515,1.25-.759,1.754-2.026,4.176-4,8.384-6.117,12.5a11.7,11.7,0,0,0-1.458,6.39c.122,1.675.024,3.368.024,5.145h-6.646c0-1.881-.074-3.777.021-5.664a10.5,10.5,0,0,0-1.2-5.462c-2.148-4.23-4.138-8.551-6.187-12.838-.247-.518-.46-1.053-.794-1.826,2.3,0,4.39-.056,6.473.053.378.019.875.641,1.063,1.1,1.306,3.2,2.545,6.439,3.958,10.056" transform="translate(-78.83 -178.767)" fill="#fff"/>
    <path id="Path_11" data-name="Path 11" d="M489.41,550.305l5.807,9.748c-1.7.456-2.775.141-3.623-1.518-1.225-2.4-2.7-4.653-4.123-6.933-.25-.4-.735-.883-1.126-.9-2.151-.088-4.306-.041-6.648-.041v9.474h-2.268V534.5c3.841,0,7.651-.231,11.423.073,3.045.245,5.56,3.578,5.837,6.938.348,4.213-1.367,7.158-5.279,8.8m-9.659-1.924c2.627,0,5.092.011,7.557,0,2.868-.016,4.847-2.125,5.109-5.416.232-2.9-1.638-6.031-4.134-6.269-2.8-.267-5.63-.061-8.532-.061Z" transform="translate(-178.499 -178.828)" fill="#fff"/>
    <path id="Path_12" data-name="Path 12" d="M420.068,545.763v-11.3h2.216v25.69H420.1V548.177H405.578V560.13h-2.238V534.42h2.2v11.343Z" transform="translate(-150.799 -178.831)" fill="#fff"/>
    <path id="Path_13" data-name="Path 13" d="M312.776,557.987v2.16H296.6V534.463h15.871c.026.6.054,1.226.09,2.043H298.986v9.424h11.694c.033.74.059,1.317.095,2.1h-11.82v9.959Z" transform="translate(-110.891 -178.845)" fill="#fff"/>
    <path id="Path_14" data-name="Path 14" d="M459.681,534.493v2.1h-13.6c0,2.954-.041,5.733.057,8.507.012.314.807.846,1.246.856,3.449.071,6.9.039,10.473.039v2.074H446.195v9.9h13.787v2.174H443.836V534.493Z" transform="translate(-165.94 -178.855)" fill="#fff"/>
    <path id="Path_15" data-name="Path 15" d="M510.165,556.573l1.168-1.982a12.166,12.166,0,0,0,11.263,3.167c2.22-.486,3.371-1.737,3.569-3.719a3.94,3.94,0,0,0-2.876-4.468c-2.123-.807-4.345-1.321-6.52-1.974-4.322-1.3-5.775-2.981-5.652-6.541.127-3.673,2.28-6.106,6.335-6.818a11.123,11.123,0,0,1,9.985,2.747l-1.031,1.906a9.843,9.843,0,0,0-9-2.442,4.322,4.322,0,0,0-3.794,3.55c-.442,2.114.169,3.751,2.068,4.566,1.7.732,3.538,1.12,5.309,1.679a38.856,38.856,0,0,1,4.111,1.378,5.716,5.716,0,0,1,3.573,5.913c-.1,2.924-1.446,4.969-3.968,5.851-5.2,1.82-10.036.912-14.537-2.815" transform="translate(-190.739 -178.695)" fill="#fff"/>
    <path id="Path_16" data-name="Path 16" d="M325.461,559.975q2.811-7.138,5.6-14.217c1.369-3.48,2.7-6.976,4.134-10.427a1.792,1.792,0,0,1,1.314-.942,1.715,1.715,0,0,1,1.362.85c3.23,8.1,6.393,16.237,9.565,24.367a1.492,1.492,0,0,1,.026.461c-1.653.586-2.562-.019-3.071-1.787-.494-1.717-1.3-3.331-1.888-5.022a1.525,1.525,0,0,0-1.695-1.236c-2.833.07-5.669.076-8.5,0a1.609,1.609,0,0,0-1.783,1.335c-.563,1.642-1.336,3.208-1.831,4.869-.505,1.691-1.312,2.519-3.229,1.751M331.588,550h9.842c-1.635-4.251-3.2-8.321-4.9-12.749-1.74,4.487-3.315,8.553-4.941,12.749" transform="translate(-121.682 -178.82)" fill="#fff"/>
    <path id="Path_17" data-name="Path 17" d="M383.487,539.444l-1.718,1.151a8.242,8.242,0,0,0-14.77.017c-3.094,5.375-1.526,12.817,3.354,15.92a8.153,8.153,0,0,0,10.963-2.259c.277-.387.535-.788.849-1.254.581.323,1.12.62,1.925,1.066a21.461,21.461,0,0,1-1.619,2.382,10.4,10.4,0,0,1-14.724.935,14.551,14.551,0,0,1-2.3-18.662,10.959,10.959,0,0,1,12.8-4.341,9.224,9.224,0,0,1,5.239,5.044" transform="translate(-135.743 -178.611)" fill="#fff"/>
    <path id="Path_18" data-name="Path 18" d="M278.565,534.583v1.953h-8.582v23.645h-2.391V536.692H258.97c-.038-.754-.068-1.329-.108-2.109Z" transform="translate(-96.782 -178.885)" fill="#fff"/>
    <path id="Path_19" data-name="Path 19" d="M365.057,378.7a6.255,6.255,0,1,1,5.89-6.258,6.093,6.093,0,0,1-5.89,6.258" transform="translate(-134.3 -122.545)" fill="#fff"/>
    <path id="Path_20" data-name="Path 20" d="M237.136,366.215a6.254,6.254,0,1,1-5.881,6.275,6.092,6.092,0,0,1,5.881-6.275" transform="translate(-86.461 -122.545)" fill="#fff"/>
  </g>
</svg>
