<svg xmlns="http://www.w3.org/2000/svg" xmlns:xlink="http://www.w3.org/1999/xlink" width="157" height="128" viewBox="0 0 157 128"><defs><clipPath id="a"><rect width="157" height="128" transform="translate(-0.377)"/></clipPath></defs><g transform="translate(-32.623 -139)"><g transform="translate(33 139)" clip-path="url(#a)"><path d="M104.328,216.429l3.559-1.792L119.52,240.7c.02-.474.04-.732.04-.989q0-6.827,0-13.654c0-1.759.676-2.479,2.331-2.48q25.516,0,51.032,0h.868l.044-.123-3.308-1.662,5.974-13.6-9.754-4.845,4.188-9.549,58.237,28.864-4.184,9.541-4.2-2.053c-.015.338-.036.582-.036.826,0,5.374,0,10.748-.011,16.123a.989.989,0,0,0,.585,1.051,4.076,4.076,0,0,1,1.917,4.559,3.789,3.789,0,0,1-7.427.14,4.1,4.1,0,0,1,1.776-4.627,1.051,1.051,0,0,0,.554-1.083q-.02-8.794,0-17.588a.932.932,0,0,0-.609-1.041c-.827-.348-1.622-.781-2.5-1.215l-5.965,13.544-2.4-1.157v1.016q0,16.933,0,33.866c0,1.826-.687,2.547-2.426,2.547H183.511v-4.18h19.21v-.915q0-16.74.016-33.48a1.132,1.132,0,0,0-.74-1.2c-6.229-3.057-12.445-6.145-18.676-9.2a3.58,3.58,0,0,0-1.527-.354q-28.71-.027-57.42-.015h-.825v45.108h19.168v4.2h-6.9c.087.264.13.45.206.619q2.325,5.222,4.668,10.435c.1.229.376.524.575.528,1.93.04,3.861.024,5.846.024V283.2h31.227v5.464h10.706v4.606h-52.5c0-1.348.017-2.677-.011-4.006a2.959,2.959,0,0,0-.235-1.1c-1.538-3.487-3.108-6.958-4.635-10.451a.847.847,0,0,0-.928-.6c-2.976.022-5.952.013-8.929.01-1.534,0-2.248-.767-2.249-2.417q0-11.649-.015-23.3a3.948,3.948,0,0,0-.329-1.539q-7.242-16.3-14.52-32.578c-.113-.253-.22-.509-.371-.858" transform="translate(-84.462 -193.828)"/><path d="M218.668,336.928h7.585A16.137,16.137,0,0,1,234.5,325.4a14.108,14.108,0,0,1,10.581-1.237c7.171,1.861,12.214,9.323,11.542,17.042-.71,8.163-6.64,14.444-14.224,14.99-7.709.556-14.622-5-16.149-13.34h-7.561a16.216,16.216,0,0,1-7.514,11.227,13.809,13.809,0,0,1-10.141,1.907c-7.778-1.518-13.035-8.485-12.748-16.78.266-7.686,6.068-14.4,13.121-15.39,8.1-1.134,15.631,4.466,17.265,13.107m22.694-10.16c-6.848-.008-12.432,5.909-12.434,13.177,0,7.24,5.55,13.174,12.347,13.195,6.855.021,12.455-5.881,12.47-13.141.015-7.28-5.547-13.223-12.383-13.232M203.556,353.14c6.846.011,12.437-5.907,12.441-13.171,0-7.24-5.547-13.179-12.34-13.2-6.856-.022-12.455,5.871-12.477,13.131s5.545,13.23,12.376,13.241" transform="translate(-143.734 -283.124)"/><path d="M287.645,444a15.848,15.848,0,0,1-15.469,8.551c-4.48-.361-11.12-4.9-12.086-8.521a30.767,30.767,0,0,0,27.555-.03" transform="translate(-194.446 -365.883)"/><path d="M69.251,546.5V534.459H72.3v4.379h3.889v-4.386h3.053V546.5H76.22v-4.675H72.336V546.5Z" transform="translate(-59.695 -428.082)"/><path d="M150.434,542.675v3.694h-3.046V534.264h.913c1.306,0,2.612-.024,3.918.007a4.089,4.089,0,0,1,3.862,4.239,3.948,3.948,0,0,1-3.887,4.163c-.553.011-1.106,0-1.76,0m.058-5.517v2.665c.8-.236,1.748.42,2.236-.53a2.073,2.073,0,0,0-.029-1.667c-.515-.891-1.435-.312-2.207-.468" transform="translate(-114.867 -427.947)"/><path d="M181.49,534.337c1.8,0,3.568-.117,5.317.031,2.034.172,3.479,2.214,3.365,4.464a3.925,3.925,0,0,1-3.724,3.863c-.6.025-1.2,0-1.886,0v3.693H181.49Zm3.069,5.495c.81-.192,1.749.417,2.245-.487a2.068,2.068,0,0,0-.035-1.723c-.525-.84-1.431-.309-2.21-.421Z" transform="translate(-138.946 -427.973)"/><path d="M117.508,546.41h-3.154a19.022,19.022,0,0,0-.569-1.853.936.936,0,0,0-.64-.5c-.671-.068-1.354.006-2.029-.035-.434-.027-.6.181-.7.579-.148.595-.329,1.18-.5,1.8h-3.178l3.963-12.116c.85,0,1.671-.019,2.489.016a.628.628,0,0,1,.466.339c1.288,3.892,2.554,7.792,3.853,11.779m-6.436-4.646h2.068c-.327-1.2-.635-2.322-.943-3.447l-.158.022-.966,3.425" transform="translate(-86.163 -427.959)"/><path d="M216.24,539.511c.667-1.667,1.276-3.139,1.841-4.631.178-.469.392-.677.895-.647.863.051,1.73.014,2.72.014-.146.339-.242.586-.356.823-.951,1.96-1.875,3.935-2.871,5.869a5.489,5.489,0,0,0-.684,3c.057.786.011,1.581.011,2.415h-3.119c0-.883-.035-1.773.01-2.659a4.927,4.927,0,0,0-.564-2.564c-1.008-1.986-1.942-4.014-2.9-6.026-.116-.243-.216-.494-.373-.857,1.08,0,2.061-.026,3.038.025.178.009.411.3.5.518.613,1.5,1.195,3.022,1.858,4.72" transform="translate(-159.674 -427.93)"/><path d="M483.053,541.872l2.726,4.576a1.26,1.26,0,0,1-1.7-.713c-.575-1.126-1.269-2.184-1.935-3.254-.117-.189-.345-.414-.529-.422-1.01-.041-2.021-.019-3.12-.019v4.447h-1.064V534.452c1.8,0,3.591-.108,5.362.034,1.429.115,2.61,1.679,2.74,3.257a3.748,3.748,0,0,1-2.478,4.13m-4.534-.9c1.233,0,2.39.005,3.547,0a2.453,2.453,0,0,0,2.4-2.542c.109-1.364-.769-2.831-1.94-2.943-1.312-.125-2.643-.029-4.005-.029Z" transform="translate(-347.91 -428.055)"/><path d="M411.192,539.744v-5.306h1.04V546.5h-1.024v-5.62h-6.818v5.611h-1.05V534.42h1.032v5.324Z" transform="translate(-295.596 -428.06)"/><path d="M304.192,545.5v1.014H296.6V534.463h7.45c.012.283.025.575.042.959h-6.371v4.423h5.489c.016.347.028.618.044.985H297.7V545.5Z" transform="translate(-220.224 -428.09)"/><path d="M451.274,534.493v.983H444.89c0,1.386-.019,2.691.027,3.993.006.147.379.4.585.4,1.619.033,3.239.018,4.916.018v.974h-5.474v4.649h6.471v1.02h-7.578V534.493Z" transform="translate(-324.189 -428.111)"/><path d="M510.165,544.6l.548-.93A5.711,5.711,0,0,0,516,545.16a1.883,1.883,0,0,0,1.675-1.746,1.849,1.849,0,0,0-1.35-2.1c-1-.379-2.039-.62-3.06-.926-2.029-.608-2.711-1.4-2.653-3.07a3.2,3.2,0,0,1,2.974-3.2,5.221,5.221,0,0,1,4.687,1.29l-.484.895a4.62,4.62,0,0,0-4.226-1.146,2.029,2.029,0,0,0-1.781,1.667,1.707,1.707,0,0,0,.971,2.143c.8.344,1.66.526,2.492.788a18.257,18.257,0,0,1,1.929.647,2.683,2.683,0,0,1,1.677,2.776,2.757,2.757,0,0,1-1.863,2.746,6.638,6.638,0,0,1-6.824-1.321" transform="translate(-371.025 -427.782)"/><path d="M325.461,546.4q1.319-3.351,2.627-6.673c.642-1.633,1.269-3.274,1.94-4.894a.841.841,0,0,1,.617-.442.8.8,0,0,1,.639.4c1.516,3.8,3,7.622,4.49,11.438a.7.7,0,0,1,.012.216c-.776.275-1.2-.009-1.441-.839-.232-.806-.61-1.563-.886-2.357a.716.716,0,0,0-.8-.58c-1.33.033-2.661.036-3.99,0a.755.755,0,0,0-.837.627c-.264.771-.627,1.506-.86,2.286s-.616,1.182-1.516.822m2.876-4.682h4.62l-2.3-5.984-2.319,5.984" transform="translate(-240.605 -428.039)"/><path d="M372.654,536.43l-.806.54a3.869,3.869,0,0,0-6.933.008,5.733,5.733,0,0,0,1.574,7.473,3.827,3.827,0,0,0,5.146-1.06c.13-.181.251-.37.4-.588l.9.5a10.081,10.081,0,0,1-.76,1.118,4.879,4.879,0,0,1-6.911.439,6.83,6.83,0,0,1-1.079-8.76,5.144,5.144,0,0,1,6.009-2.038,4.33,4.33,0,0,1,2.459,2.368" transform="translate(-267.161 -427.609)"/><path d="M268.111,534.583v.917h-4.028v11.1H262.96V535.573h-4.048c-.018-.354-.032-.624-.051-.99Z" transform="translate(-193.579 -428.173)"/><path d="M361.954,372.073a2.936,2.936,0,1,1,2.765-2.937,2.86,2.86,0,0,1-2.765,2.937" transform="translate(-264.435 -312.39)"/><path d="M234.016,366.215a2.936,2.936,0,1,1-2.76,2.946,2.86,2.86,0,0,1,2.76-2.946" transform="translate(-174.086 -312.39)"/></g></g></svg>